<?xml version="1.0" encoding="UTF-8"?>
<svg width="752pt" height="752pt" version="1.1" viewBox="0 0 752 752" xmlns="http://www.w3.org/2000/svg">
 <path d="m376 154.01c-122.52 0-221.99 99.465-221.99 221.99 0 122.53 99.465 221.99 221.99 221.99 122.53 0 221.99-99.465 221.99-221.99 0-122.52-99.465-221.99-221.99-221.99zm0 29.598c106.19 0 192.39 86.207 192.39 192.39 0 106.19-86.207 192.39-192.39 192.39-106.18 0-192.39-86.207-192.39-192.39 0-106.18 86.207-192.39 192.39-192.39zm-57.273 190.51c-44.887 21.445-75.918 67.266-75.918 120.28 0 8.168 6.6289 14.797 14.797 14.797 8.1719 0 14.801-6.6289 14.801-14.797 0-46.441 30.621-85.777 72.754-98.922 1.1523-0.36719 2.2344-0.85937 3.2422-1.4648 8.582 3.2422 17.875 5.0156 27.598 5.0156 10.094 0 19.742-1.9219 28.625-5.3984 0.76953 0.33984 1.582 0.62109 2.4414 0.82812 41.809 10.27 72.531 42.148 72.531 88.102 0 8.168 6.6289 14.797 14.801 14.797 8.168 0 14.797-6.6289 14.797-14.797 0-52.789-30.203-91.906-74.395-110.11 12.105-13.762 19.461-31.805 19.461-51.531 0-43.098-35.062-78.109-78.262-78.109s-78.258 35.012-78.258 78.109c0 20.543 7.9609 39.262 20.984 53.203zm57.273-101.71c26.848 0 48.66 21.727 48.66 48.512 0 26.773-21.812 48.512-48.66 48.512-26.844 0-48.66-21.738-48.66-48.512 0-26.785 21.816-48.512 48.66-48.512z" fill="#fff" fill-rule="evenodd"/>
</svg>
